# xmcd CD database file
#
# Track frame offsets:
#	150
#	33885
#	71030
#	100355
#	128345
#	154850
#	182612
#	203742
#	239475
#
# Disc length: 3645 seconds
#
# Revision: 0
# Processed by: cddbd v1.5.1PL0 Copyright (c) Steve Scherf et al.
# Submitted via: CDex 1.51
#
DISCID=720e3b09
DTITLE=Bernie Senensky - Rhapsody
DYEAR=1996
DGENRE=Jazz
TTITLE0=I Hear a Rhapsody
TTITLE1=Come Rain Or Come Shine
TTITLE2=Goodbye, Mr. Evans
TTITLE3=Winnibop
TTITLE4=Together
TTITLE5=Winnie's Revenge
TTITLE6=Yesterday's Thoughts
TTITLE7=Someday My Prince Will Come
TTITLE8=Come Rain Or Come Shine (Alternate Take)
EXTD=YEAR: 1996
EXTT0=
EXTT1=
EXTT2=
EXTT3=
EXTT4=
EXTT5=
EXTT6=
EXTT7=
EXTT8=
PLAYORDER=
